<mxfile host="65bd71144e">
    <diagram id="cHQckICc_KCXVRTkvGpA" name="PÃ¡gina-1">
        <mxGraphModel dx="2268" dy="1655" grid="1" gridSize="8" guides="1" tooltips="1" connect="1" arrows="1" fold="1" page="1" pageScale="1" pageWidth="1654" pageHeight="1169" background="#000000" math="0" shadow="0">
            <root>
                <mxCell id="0"/>
                <mxCell id="1" parent="0"/>
                <mxCell id="13" style="edgeStyle=none;html=1;exitX=0.5;exitY=1;exitDx=0;exitDy=0;exitPerimeter=0;entryX=0.343;entryY=0.028;entryDx=0;entryDy=0;entryPerimeter=0;startArrow=none;startFill=0;endArrow=none;endFill=0;strokeWidth=1;" parent="1" source="5" target="10" edge="1">
                    <mxGeometry relative="1" as="geometry"/>
                </mxCell>
                <mxCell id="5" value="" style="outlineConnect=0;dashed=0;verticalLabelPosition=bottom;verticalAlign=top;align=center;html=1;shape=mxgraph.aws3.management_console;fillColor=#f5f5f5;strokeColor=#666666;gradientColor=#b3b3b3;" parent="1" vertex="1">
                    <mxGeometry x="800" y="48" width="63" height="63" as="geometry"/>
                </mxCell>
                <mxCell id="9" style="edgeStyle=none;html=1;startArrow=oval;startFill=1;endArrow=oval;endFill=1;exitX=0.677;exitY=-0.004;exitDx=0;exitDy=0;exitPerimeter=0;strokeWidth=1;fillColor=#1ba1e2;strokeColor=#006EAF;" parent="1" source="6" target="8" edge="1">
                    <mxGeometry relative="1" as="geometry">
                        <mxPoint x="832.02" y="344" as="targetPoint"/>
                    </mxGeometry>
                </mxCell>
                <mxCell id="121" style="edgeStyle=none;html=1;fontSize=10;fontColor=#000000;startArrow=none;startFill=0;endArrow=none;endFill=0;strokeWidth=1;dashed=1;" parent="1" source="6" target="120" edge="1">
                    <mxGeometry relative="1" as="geometry">
                        <mxPoint x="1736" y="380" as="targetPoint"/>
                        <Array as="points">
                            <mxPoint x="1304" y="472"/>
                            <mxPoint x="1304" y="380"/>
                        </Array>
                    </mxGeometry>
                </mxCell>
                <mxCell id="6" value="" style="points=[];aspect=fixed;html=1;align=center;shadow=0;dashed=0;image;image=img/lib/allied_telesis/computer_and_terminals/Server_Desktop.svg;gradientColor=none;imageBorder=none;imageBackground=none;" parent="1" vertex="1">
                    <mxGeometry x="790.48" y="424" width="82.04" height="104" as="geometry"/>
                </mxCell>
                <mxCell id="140" style="edgeStyle=none;html=1;exitX=1;exitY=0.5;exitDx=0;exitDy=0;exitPerimeter=0;entryX=0;entryY=0.5;entryDx=0;entryDy=0;entryPerimeter=0;endArrow=none;endFill=0;" edge="1" parent="1" source="7" target="139">
                    <mxGeometry relative="1" as="geometry">
                        <Array as="points">
                            <mxPoint x="1944" y="380"/>
                            <mxPoint x="1944" y="356"/>
                        </Array>
                    </mxGeometry>
                </mxCell>
                <mxCell id="7" value="" style="outlineConnect=0;dashed=0;verticalLabelPosition=bottom;verticalAlign=top;align=center;html=1;shape=mxgraph.aws3.generic_database;fillColor=#7D7C7C;gradientColor=none;" parent="1" vertex="1">
                    <mxGeometry x="1848" y="328" width="72" height="104" as="geometry"/>
                </mxCell>
                <mxCell id="16" style="edgeStyle=none;html=1;exitX=0.5;exitY=1;exitDx=0;exitDy=0;exitPerimeter=0;startArrow=none;startFill=0;endArrow=none;endFill=0;strokeWidth=1;" parent="1" source="10" target="8" edge="1">
                    <mxGeometry relative="1" as="geometry"/>
                </mxCell>
                <mxCell id="10" value="token" style="shape=folder;fontStyle=1;tabWidth=64;tabHeight=16;tabPosition=left;html=1;boundedLbl=1;labelInHeader=1;container=1;collapsible=0;recursiveResize=0;gradientColor=none;" parent="1" vertex="1">
                    <mxGeometry x="799" y="184" width="96" height="48" as="geometry"/>
                </mxCell>
                <mxCell id="12" value="" style="dashed=0;outlineConnect=0;html=1;align=center;labelPosition=center;verticalLabelPosition=bottom;verticalAlign=top;shape=mxgraph.weblogos.json_2;gradientColor=none;" parent="10" vertex="1">
                    <mxGeometry x="21.9" y="24" width="52.2" height="16" as="geometry"/>
                </mxCell>
                <mxCell id="18" value="" style="group" parent="1" vertex="1" connectable="0">
                    <mxGeometry x="831" y="336" width="185" height="32" as="geometry"/>
                </mxCell>
                <mxCell id="8" value="" style="sketch=0;outlineConnect=0;fontColor=#ffffff;fillColor=#1ba1e2;strokeColor=#006EAF;dashed=0;verticalLabelPosition=bottom;verticalAlign=top;align=center;html=1;fontSize=12;fontStyle=0;aspect=fixed;pointerEvents=1;shape=mxgraph.aws4.endpoint;" parent="18" vertex="1">
                    <mxGeometry width="32" height="32" as="geometry"/>
                </mxCell>
                <mxCell id="17" value="/tests/test-create-database" style="text;html=1;strokeColor=none;fillColor=none;align=center;verticalAlign=middle;whiteSpace=wrap;rounded=0;fontSize=10;" parent="18" vertex="1">
                    <mxGeometry x="17" y="2" width="168" height="30" as="geometry"/>
                </mxCell>
                <mxCell id="30" style="edgeStyle=none;html=1;exitX=0.5;exitY=0;exitDx=0;exitDy=0;entryX=-0.015;entryY=0.54;entryDx=0;entryDy=0;entryPerimeter=0;fontSize=10;startArrow=classic;startFill=1;endArrow=none;endFill=0;strokeWidth=1;fillColor=#1ba1e2;strokeColor=#006EAF;" parent="1" source="19" target="6" edge="1">
                    <mxGeometry relative="1" as="geometry">
                        <Array as="points">
                            <mxPoint x="664" y="480"/>
                        </Array>
                    </mxGeometry>
                </mxCell>
                <mxCell id="34" style="edgeStyle=none;html=1;exitX=0.25;exitY=1;exitDx=0;exitDy=0;entryX=0.546;entryY=-0.005;entryDx=0;entryDy=0;entryPerimeter=0;fontSize=10;startArrow=none;startFill=0;endArrow=none;endFill=0;strokeWidth=1;" parent="1" source="19" target="24" edge="1">
                    <mxGeometry relative="1" as="geometry"/>
                </mxCell>
                <mxCell id="35" style="edgeStyle=none;html=1;exitX=0.75;exitY=1;exitDx=0;exitDy=0;entryX=0.5;entryY=0;entryDx=0;entryDy=0;fontSize=10;startArrow=none;startFill=0;endArrow=none;endFill=0;strokeWidth=1;" parent="1" source="19" target="31" edge="1">
                    <mxGeometry relative="1" as="geometry"/>
                </mxCell>
                <mxCell id="19" value="@required_token" style="shape=process;whiteSpace=wrap;html=1;backgroundOutline=1;fontSize=10;strokeColor=#C73500;fillColor=#fa6800;fontColor=#000000;" parent="1" vertex="1">
                    <mxGeometry x="568" y="528" width="192" height="24" as="geometry"/>
                </mxCell>
                <mxCell id="53" style="edgeStyle=none;html=1;exitX=0;exitY=0.5;exitDx=0;exitDy=0;exitPerimeter=0;entryX=1;entryY=0;entryDx=0;entryDy=0;fontSize=10;fontColor=#FFFFFF;startArrow=none;startFill=0;endArrow=classic;endFill=1;strokeWidth=1;" parent="1" source="20" target="51" edge="1">
                    <mxGeometry relative="1" as="geometry">
                        <Array as="points">
                            <mxPoint x="496" y="847"/>
                        </Array>
                    </mxGeometry>
                </mxCell>
                <mxCell id="21" value="@Model.create_database" style="shape=process;whiteSpace=wrap;html=1;backgroundOutline=1;fontSize=10;strokeColor=#C73500;fillColor=#fa6800;fontColor=#000000;" parent="1" vertex="1">
                    <mxGeometry x="856" y="528" width="169" height="24" as="geometry"/>
                </mxCell>
                <mxCell id="37" style="edgeStyle=none;html=1;exitX=0.75;exitY=0;exitDx=0;exitDy=0;dashed=1;dashPattern=1 2;fontSize=10;startArrow=none;startFill=0;endArrow=none;endFill=0;strokeWidth=1;entryX=0;entryY=0;entryDx=0;entryDy=16;entryPerimeter=0;" parent="1" source="24" target="10" edge="1">
                    <mxGeometry relative="1" as="geometry">
                        <mxPoint x="792" y="192" as="targetPoint"/>
                        <Array as="points">
                            <mxPoint x="632" y="200"/>
                        </Array>
                    </mxGeometry>
                </mxCell>
                <mxCell id="107" style="edgeStyle=none;html=1;exitX=0;exitY=0.5;exitDx=0;exitDy=0;entryX=0.5;entryY=0;entryDx=0;entryDy=0;fontSize=10;fontColor=#000000;startArrow=none;startFill=0;endArrow=classic;endFill=1;strokeWidth=1;" parent="1" source="24" target="39" edge="1">
                    <mxGeometry relative="1" as="geometry">
                        <Array as="points">
                            <mxPoint x="508" y="585"/>
                        </Array>
                    </mxGeometry>
                </mxCell>
                <mxCell id="24" value="request.headers" style="rounded=1;whiteSpace=wrap;html=1;fontSize=10;strokeColor=#3D3D3D;gradientColor=none;" parent="1" vertex="1">
                    <mxGeometry x="568" y="569" width="88" height="32" as="geometry"/>
                </mxCell>
                <mxCell id="36" style="edgeStyle=none;html=1;exitX=0.75;exitY=0;exitDx=0;exitDy=0;entryX=0.02;entryY=0.98;entryDx=0;entryDy=0;entryPerimeter=0;fontSize=10;startArrow=none;startFill=0;endArrow=none;endFill=0;strokeWidth=1;dashed=1;dashPattern=1 2;" parent="1" source="31" target="5" edge="1">
                    <mxGeometry relative="1" as="geometry">
                        <Array as="points">
                            <mxPoint x="736" y="110"/>
                        </Array>
                    </mxGeometry>
                </mxCell>
                <mxCell id="63" style="edgeStyle=none;html=1;exitX=0.5;exitY=1;exitDx=0;exitDy=0;entryX=1;entryY=0;entryDx=0;entryDy=0;fontSize=10;fontColor=#FFFFFF;startArrow=none;startFill=0;endArrow=classic;endFill=1;strokeWidth=1;" parent="1" source="31" target="61" edge="1">
                    <mxGeometry relative="1" as="geometry">
                        <Array as="points">
                            <mxPoint x="712" y="656"/>
                            <mxPoint x="712" y="880"/>
                        </Array>
                    </mxGeometry>
                </mxCell>
                <mxCell id="31" value="request.ip_address" style="rounded=1;whiteSpace=wrap;html=1;fontSize=10;strokeColor=#3D3D3D;gradientColor=none;" parent="1" vertex="1">
                    <mxGeometry x="664" y="569" width="96" height="32" as="geometry"/>
                </mxCell>
                <mxCell id="40" value="" style="group" parent="1" vertex="1" connectable="0">
                    <mxGeometry x="440" y="608" width="136" height="32" as="geometry"/>
                </mxCell>
                <mxCell id="39" value="Token&amp;nbsp;&lt;font color=&quot;#f0b30a&quot;&gt;Ssj20#sjsapo...&lt;/font&gt;" style="rounded=1;whiteSpace=wrap;html=1;fontSize=10;strokeColor=#3D3D3D;gradientColor=none;align=right;" parent="40" vertex="1">
                    <mxGeometry width="136" height="32" as="geometry"/>
                </mxCell>
                <mxCell id="38" value="" style="sketch=0;outlineConnect=0;fillColor=#1ba1e2;strokeColor=#006EAF;dashed=0;verticalLabelPosition=bottom;verticalAlign=top;align=center;html=1;fontSize=12;fontStyle=0;aspect=fixed;pointerEvents=1;shape=mxgraph.aws4.saml_token;fontColor=#ffffff;" parent="40" vertex="1">
                    <mxGeometry x="8" y="4" width="24" height="24" as="geometry"/>
                </mxCell>
                <mxCell id="46" style="edgeStyle=none;html=1;exitX=0;exitY=0.5;exitDx=0;exitDy=0;entryX=1;entryY=0.5;entryDx=0;entryDy=0;fontSize=10;fontColor=#FFFFFF;startArrow=none;startFill=0;endArrow=classic;endFill=1;strokeWidth=1;" parent="1" source="42" target="43" edge="1">
                    <mxGeometry relative="1" as="geometry"/>
                </mxCell>
                <mxCell id="48" style="edgeStyle=none;html=1;exitX=0.5;exitY=1;exitDx=0;exitDy=0;entryX=0.5;entryY=0;entryDx=0;entryDy=0;fontSize=10;fontColor=#FFFFFF;startArrow=none;startFill=0;endArrow=classic;endFill=1;strokeWidth=1;" parent="1" source="42" target="47" edge="1">
                    <mxGeometry relative="1" as="geometry"/>
                </mxCell>
                <mxCell id="42" value="&lt;font color=&quot;#ffffff&quot;&gt;split&lt;/font&gt;" style="rhombus;whiteSpace=wrap;html=1;fontSize=10;fontColor=#F0B30A;strokeColor=#3D3D3D;gradientColor=none;" parent="1" vertex="1">
                    <mxGeometry x="440" y="696" width="56" height="56" as="geometry"/>
                </mxCell>
                <mxCell id="43" value="Index Error" style="rounded=1;whiteSpace=wrap;html=1;fontSize=10;strokeColor=none;fillColor=#E55C5C;fontColor=#ffffff;" parent="1" vertex="1">
                    <mxGeometry x="264" y="714" width="120" height="20" as="geometry"/>
                </mxCell>
                <mxCell id="50" style="edgeStyle=none;html=1;exitX=0;exitY=0.5;exitDx=0;exitDy=0;entryX=1;entryY=0.5;entryDx=0;entryDy=0;fontSize=10;fontColor=#FFFFFF;startArrow=none;startFill=0;endArrow=classic;endFill=1;strokeWidth=1;" parent="1" source="47" target="49" edge="1">
                    <mxGeometry relative="1" as="geometry"/>
                </mxCell>
                <mxCell id="52" style="edgeStyle=none;html=1;exitX=0.5;exitY=1;exitDx=0;exitDy=0;entryX=0.5;entryY=0;entryDx=0;entryDy=0;fontSize=10;fontColor=#FFFFFF;startArrow=none;startFill=0;endArrow=classic;endFill=1;strokeWidth=1;" parent="1" source="47" target="51" edge="1">
                    <mxGeometry relative="1" as="geometry"/>
                </mxCell>
                <mxCell id="47" value="&lt;font color=&quot;#ffffff&quot;&gt;None?&lt;/font&gt;" style="rhombus;whiteSpace=wrap;html=1;fontSize=10;fontColor=#F0B30A;strokeColor=#3D3D3D;gradientColor=none;" parent="1" vertex="1">
                    <mxGeometry x="440" y="776" width="56" height="56" as="geometry"/>
                </mxCell>
                <mxCell id="49" value="Attribute Error&amp;nbsp;" style="rounded=1;whiteSpace=wrap;html=1;fontSize=10;strokeColor=none;fillColor=#E55C5C;fontColor=#ffffff;" parent="1" vertex="1">
                    <mxGeometry x="264" y="794" width="120" height="20" as="geometry"/>
                </mxCell>
                <mxCell id="57" style="edgeStyle=none;html=1;exitX=0;exitY=0.5;exitDx=0;exitDy=0;fontSize=10;fontColor=#FFFFFF;startArrow=none;startFill=0;endArrow=classic;endFill=1;strokeWidth=1;" parent="1" source="51" target="54" edge="1">
                    <mxGeometry relative="1" as="geometry"/>
                </mxCell>
                <mxCell id="60" style="edgeStyle=none;html=1;exitX=0;exitY=0.5;exitDx=0;exitDy=0;entryX=1;entryY=0.5;entryDx=0;entryDy=0;fontSize=10;fontColor=#FFFFFF;startArrow=none;startFill=0;endArrow=classic;endFill=1;strokeWidth=1;" parent="1" source="51" target="58" edge="1">
                    <mxGeometry relative="1" as="geometry">
                        <Array as="points">
                            <mxPoint x="416" y="884"/>
                            <mxPoint x="416" y="922"/>
                        </Array>
                    </mxGeometry>
                </mxCell>
                <mxCell id="62" style="edgeStyle=none;html=1;exitX=0.5;exitY=1;exitDx=0;exitDy=0;entryX=0.5;entryY=0;entryDx=0;entryDy=0;fontSize=10;fontColor=#FFFFFF;startArrow=none;startFill=0;endArrow=classic;endFill=1;strokeWidth=1;" parent="1" source="51" target="61" edge="1">
                    <mxGeometry relative="1" as="geometry"/>
                </mxCell>
                <mxCell id="51" value="&lt;font color=&quot;#ffffff&quot;&gt;Decode&lt;/font&gt;" style="rhombus;whiteSpace=wrap;html=1;fontSize=10;fontColor=#F0B30A;strokeColor=#3D3D3D;gradientColor=none;" parent="1" vertex="1">
                    <mxGeometry x="440" y="856" width="56" height="56" as="geometry"/>
                </mxCell>
                <mxCell id="54" value="Decode Error" style="rounded=1;whiteSpace=wrap;html=1;fontSize=10;strokeColor=none;fillColor=#E55C5C;fontColor=#ffffff;" parent="1" vertex="1">
                    <mxGeometry x="264" y="874" width="120" height="20" as="geometry"/>
                </mxCell>
                <mxCell id="56" value="" style="group" parent="1" vertex="1" connectable="0">
                    <mxGeometry x="528" y="824" width="122" height="45" as="geometry"/>
                </mxCell>
                <mxCell id="20" value="" style="sketch=0;pointerEvents=1;shadow=0;dashed=0;html=1;strokeColor=none;labelPosition=center;verticalLabelPosition=bottom;verticalAlign=top;align=center;fillColor=#505050;shape=mxgraph.mscae.oms.config_assessment;fontSize=10;" parent="56" vertex="1">
                    <mxGeometry width="50" height="45" as="geometry"/>
                </mxCell>
                <mxCell id="55" value="SECRET KEY" style="text;html=1;strokeColor=none;fillColor=none;align=center;verticalAlign=middle;whiteSpace=wrap;rounded=0;fontSize=10;fontColor=#FFFFFF;" parent="56" vertex="1">
                    <mxGeometry x="42" y="7.5" width="80" height="30" as="geometry"/>
                </mxCell>
                <mxCell id="58" value="Expired Signature Error" style="rounded=1;whiteSpace=wrap;html=1;fontSize=10;strokeColor=none;fillColor=#E55C5C;fontColor=#ffffff;" parent="1" vertex="1">
                    <mxGeometry x="264" y="912" width="120" height="20" as="geometry"/>
                </mxCell>
                <mxCell id="65" style="edgeStyle=none;html=1;exitX=0;exitY=0.5;exitDx=0;exitDy=0;entryX=1;entryY=0.5;entryDx=0;entryDy=0;fontSize=10;fontColor=#FFFFFF;startArrow=none;startFill=0;endArrow=classic;endFill=1;strokeWidth=1;" parent="1" source="61" target="64" edge="1">
                    <mxGeometry relative="1" as="geometry"/>
                </mxCell>
                <mxCell id="67" style="edgeStyle=none;html=1;exitX=0.5;exitY=1;exitDx=0;exitDy=0;entryX=0;entryY=0.5;entryDx=0;entryDy=0;fontSize=10;fontColor=#000000;startArrow=none;startFill=0;endArrow=classic;endFill=1;strokeWidth=1;" parent="1" source="61" target="66" edge="1">
                    <mxGeometry relative="1" as="geometry">
                        <Array as="points">
                            <mxPoint x="468" y="1050"/>
                        </Array>
                    </mxGeometry>
                </mxCell>
                <mxCell id="61" value="&lt;font color=&quot;#ffffff&quot;&gt;HASH&lt;/font&gt;" style="rhombus;whiteSpace=wrap;html=1;fontSize=10;fontColor=#F0B30A;strokeColor=#3D3D3D;gradientColor=none;" parent="1" vertex="1">
                    <mxGeometry x="440" y="944" width="56" height="56" as="geometry"/>
                </mxCell>
                <mxCell id="64" value="Wrong Hash" style="rounded=1;whiteSpace=wrap;html=1;fontSize=10;strokeColor=none;fillColor=#E55C5C;fontColor=#ffffff;" parent="1" vertex="1">
                    <mxGeometry x="264" y="962" width="120" height="20" as="geometry"/>
                </mxCell>
                <mxCell id="68" style="edgeStyle=none;html=1;exitX=1;exitY=0.5;exitDx=0;exitDy=0;entryX=0;entryY=0.5;entryDx=0;entryDy=0;fontSize=10;fontColor=#000000;startArrow=none;startFill=0;endArrow=classic;endFill=1;strokeWidth=1;" parent="1" source="66" target="21" edge="1">
                    <mxGeometry relative="1" as="geometry">
                        <Array as="points">
                            <mxPoint x="808" y="1050"/>
                            <mxPoint x="808" y="540"/>
                        </Array>
                    </mxGeometry>
                </mxCell>
                <mxCell id="66" value="Valid Token" style="rounded=1;whiteSpace=wrap;html=1;fontSize=10;strokeColor=#36393d;fillColor=#98EB50;fontColor=#000000;" parent="1" vertex="1">
                    <mxGeometry x="520" y="1040" width="120" height="20" as="geometry"/>
                </mxCell>
                <mxCell id="75" style="edgeStyle=none;html=1;entryX=0;entryY=0.5;entryDx=0;entryDy=0;fontSize=10;fontColor=#000000;startArrow=none;startFill=0;endArrow=classic;endFill=1;strokeWidth=1;exitX=0.5;exitY=1;exitDx=0;exitDy=0;" parent="1" source="21" target="74" edge="1">
                    <mxGeometry relative="1" as="geometry">
                        <mxPoint x="924" y="648" as="sourcePoint"/>
                        <Array as="points">
                            <mxPoint x="941" y="581"/>
                        </Array>
                    </mxGeometry>
                </mxCell>
                <mxCell id="80" style="edgeStyle=none;html=1;exitX=0.25;exitY=1;exitDx=0;exitDy=0;entryX=0.442;entryY=-0.012;entryDx=0;entryDy=0;entryPerimeter=0;fontSize=10;fontColor=#000000;startArrow=none;startFill=0;endArrow=none;endFill=0;strokeWidth=1;" parent="1" source="74" target="79" edge="1">
                    <mxGeometry relative="1" as="geometry"/>
                </mxCell>
                <mxCell id="74" value="Json_field_validation" style="shape=process;whiteSpace=wrap;html=1;backgroundOutline=1;fontSize=10;strokeColor=#3700CC;fillColor=#6a00ff;fontColor=#ffffff;" parent="1" vertex="1">
                    <mxGeometry x="960" y="569" width="169" height="24" as="geometry"/>
                </mxCell>
                <mxCell id="84" style="edgeStyle=none;html=1;exitX=0;exitY=0.5;exitDx=0;exitDy=0;entryX=0;entryY=0;entryDx=0;entryDy=0;fontSize=10;fontColor=#000000;startArrow=none;startFill=0;endArrow=classic;endFill=1;strokeWidth=1;" parent="1" source="76" target="77" edge="1">
                    <mxGeometry relative="1" as="geometry">
                        <Array as="points">
                            <mxPoint x="984" y="680"/>
                        </Array>
                    </mxGeometry>
                </mxCell>
                <mxCell id="76" value="[&quot;database&quot;]" style="rounded=1;whiteSpace=wrap;html=1;fontSize=10;strokeColor=none;" parent="1" vertex="1">
                    <mxGeometry x="880" y="661" width="80" height="19" as="geometry"/>
                </mxCell>
                <mxCell id="87" style="edgeStyle=none;html=1;exitX=1;exitY=0.5;exitDx=0;exitDy=0;entryX=0;entryY=0.5;entryDx=0;entryDy=0;fontSize=10;fontColor=#000000;startArrow=none;startFill=0;endArrow=classic;endFill=1;strokeWidth=1;" parent="1" source="77" target="86" edge="1">
                    <mxGeometry relative="1" as="geometry"/>
                </mxCell>
                <mxCell id="90" style="edgeStyle=none;html=1;exitX=0.5;exitY=1;exitDx=0;exitDy=0;entryX=0.5;entryY=0;entryDx=0;entryDy=0;fontSize=10;fontColor=#000000;startArrow=none;startFill=0;endArrow=classic;endFill=1;strokeWidth=1;" parent="1" source="77" target="89" edge="1">
                    <mxGeometry relative="1" as="geometry"/>
                </mxCell>
                <mxCell id="77" value="&lt;font color=&quot;#ffffff&quot;&gt;if key?&lt;/font&gt;" style="rhombus;whiteSpace=wrap;html=1;fontSize=10;fontColor=#F0B30A;strokeColor=#3D3D3D;gradientColor=none;" parent="1" vertex="1">
                    <mxGeometry x="980" y="680" width="56" height="56" as="geometry"/>
                </mxCell>
                <mxCell id="83" style="edgeStyle=none;html=1;exitX=0.5;exitY=1;exitDx=0;exitDy=0;entryX=0.5;entryY=0;entryDx=0;entryDy=0;fontSize=10;fontColor=#000000;startArrow=none;startFill=0;endArrow=classic;endFill=1;strokeWidth=1;" parent="1" source="79" target="77" edge="1">
                    <mxGeometry relative="1" as="geometry"/>
                </mxCell>
                <mxCell id="79" value="request.json" style="rounded=1;whiteSpace=wrap;html=1;fontSize=10;strokeColor=#3D3D3D;gradientColor=none;" parent="1" vertex="1">
                    <mxGeometry x="960" y="608" width="96" height="32" as="geometry"/>
                </mxCell>
                <mxCell id="86" value="Key Error" style="rounded=1;whiteSpace=wrap;html=1;fontSize=10;strokeColor=none;fillColor=#E55C5C;fontColor=#ffffff;" parent="1" vertex="1">
                    <mxGeometry x="1064" y="698" width="120" height="20" as="geometry"/>
                </mxCell>
                <mxCell id="92" style="edgeStyle=none;html=1;exitX=0.5;exitY=1;exitDx=0;exitDy=0;entryX=0.5;entryY=0;entryDx=0;entryDy=0;fontSize=10;fontColor=#000000;startArrow=none;startFill=0;endArrow=classic;endFill=1;strokeWidth=1;" parent="1" source="89" target="91" edge="1">
                    <mxGeometry relative="1" as="geometry"/>
                </mxCell>
                <mxCell id="89" value="string_validation" style="shape=process;whiteSpace=wrap;html=1;backgroundOutline=1;fontSize=10;strokeColor=#3700CC;fillColor=#6a00ff;fontColor=#ffffff;" parent="1" vertex="1">
                    <mxGeometry x="923.5" y="760" width="169" height="24" as="geometry"/>
                </mxCell>
                <mxCell id="94" style="edgeStyle=none;html=1;exitX=1;exitY=0.5;exitDx=0;exitDy=0;entryX=0;entryY=0.5;entryDx=0;entryDy=0;fontSize=10;fontColor=#000000;startArrow=none;startFill=0;endArrow=classic;endFill=1;strokeWidth=1;" parent="1" source="91" target="93" edge="1">
                    <mxGeometry relative="1" as="geometry"/>
                </mxCell>
                <mxCell id="96" style="edgeStyle=none;html=1;exitX=0.5;exitY=1;exitDx=0;exitDy=0;entryX=0.5;entryY=0;entryDx=0;entryDy=0;fontSize=10;fontColor=#000000;startArrow=none;startFill=0;endArrow=classic;endFill=1;strokeWidth=1;" parent="1" source="91" target="95" edge="1">
                    <mxGeometry relative="1" as="geometry"/>
                </mxCell>
                <mxCell id="91" value="&lt;font color=&quot;#ffffff&quot;&gt;isistance?&lt;/font&gt;" style="rhombus;whiteSpace=wrap;html=1;fontSize=10;fontColor=#F0B30A;strokeColor=#3D3D3D;gradientColor=none;" parent="1" vertex="1">
                    <mxGeometry x="980" y="808" width="56" height="56" as="geometry"/>
                </mxCell>
                <mxCell id="93" value="no string" style="rounded=1;whiteSpace=wrap;html=1;fontSize=10;strokeColor=none;fillColor=#E55C5C;fontColor=#ffffff;" parent="1" vertex="1">
                    <mxGeometry x="1072" y="826" width="120" height="20" as="geometry"/>
                </mxCell>
                <mxCell id="98" style="edgeStyle=none;html=1;exitX=1;exitY=0.5;exitDx=0;exitDy=0;entryX=0;entryY=0.5;entryDx=0;entryDy=0;fontSize=10;fontColor=#000000;startArrow=none;startFill=0;endArrow=classic;endFill=1;strokeWidth=1;" parent="1" source="95" target="97" edge="1">
                    <mxGeometry relative="1" as="geometry"/>
                </mxCell>
                <mxCell id="100" style="edgeStyle=none;html=1;exitX=0.5;exitY=1;exitDx=0;exitDy=0;entryX=0.5;entryY=0;entryDx=0;entryDy=0;fontSize=10;fontColor=#000000;startArrow=none;startFill=0;endArrow=classic;endFill=1;strokeWidth=1;" parent="1" source="95" target="99" edge="1">
                    <mxGeometry relative="1" as="geometry"/>
                </mxCell>
                <mxCell id="95" value="&lt;font color=&quot;#ffffff&quot;&gt;len &amp;gt;= 4&lt;/font&gt;" style="rhombus;whiteSpace=wrap;html=1;fontSize=10;fontColor=#F0B30A;strokeColor=#3D3D3D;gradientColor=none;" parent="1" vertex="1">
                    <mxGeometry x="980" y="888" width="56" height="56" as="geometry"/>
                </mxCell>
                <mxCell id="97" value="must be more than 4 char" style="rounded=1;whiteSpace=wrap;html=1;fontSize=10;strokeColor=none;fillColor=#E55C5C;fontColor=#ffffff;" parent="1" vertex="1">
                    <mxGeometry x="1072" y="906" width="120" height="20" as="geometry"/>
                </mxCell>
                <mxCell id="102" style="edgeStyle=none;html=1;exitX=1;exitY=0.5;exitDx=0;exitDy=0;fontSize=10;fontColor=#000000;startArrow=none;startFill=0;endArrow=classic;endFill=1;strokeWidth=1;" parent="1" source="99" target="101" edge="1">
                    <mxGeometry relative="1" as="geometry"/>
                </mxCell>
                <mxCell id="104" style="edgeStyle=none;html=1;exitX=0.5;exitY=1;exitDx=0;exitDy=0;entryX=0;entryY=0.5;entryDx=0;entryDy=0;fontSize=10;fontColor=#000000;startArrow=none;startFill=0;endArrow=classic;endFill=1;strokeWidth=1;" parent="1" source="99" target="103" edge="1">
                    <mxGeometry relative="1" as="geometry">
                        <Array as="points">
                            <mxPoint x="1008" y="1050"/>
                        </Array>
                    </mxGeometry>
                </mxCell>
                <mxCell id="99" value="&lt;font color=&quot;#ffffff&quot;&gt;char not&lt;br&gt;allowed&lt;br&gt;&lt;/font&gt;" style="rhombus;whiteSpace=wrap;html=1;fontSize=10;fontColor=#F0B30A;strokeColor=#3D3D3D;gradientColor=none;" parent="1" vertex="1">
                    <mxGeometry x="980" y="968" width="56" height="56" as="geometry"/>
                </mxCell>
                <mxCell id="101" value="contain not allowed char" style="rounded=1;whiteSpace=wrap;html=1;fontSize=10;strokeColor=none;fillColor=#E55C5C;fontColor=#ffffff;" parent="1" vertex="1">
                    <mxGeometry x="1072" y="986" width="120" height="20" as="geometry"/>
                </mxCell>
                <mxCell id="113" style="edgeStyle=none;html=1;exitX=1;exitY=0.5;exitDx=0;exitDy=0;entryX=0;entryY=0.5;entryDx=0;entryDy=0;fontSize=10;fontColor=#000000;startArrow=none;startFill=0;endArrow=none;endFill=0;strokeWidth=1;" parent="1" source="103" target="105" edge="1">
                    <mxGeometry relative="1" as="geometry">
                        <Array as="points">
                            <mxPoint x="1312" y="1050"/>
                            <mxPoint x="1312" y="540"/>
                        </Array>
                    </mxGeometry>
                </mxCell>
                <mxCell id="103" value="Valid Name" style="rounded=1;whiteSpace=wrap;html=1;fontSize=10;strokeColor=#36393d;fillColor=#98EB50;fontColor=#000000;" parent="1" vertex="1">
                    <mxGeometry x="1036" y="1040" width="120" height="20" as="geometry"/>
                </mxCell>
                <mxCell id="124" style="edgeStyle=none;html=1;exitX=0.836;exitY=1.087;exitDx=0;exitDy=0;entryX=0.5;entryY=0;entryDx=0;entryDy=0;fontSize=10;fontColor=#000000;startArrow=none;startFill=0;endArrow=classic;endFill=1;strokeWidth=1;exitPerimeter=0;" parent="1" source="105" target="119" edge="1">
                    <mxGeometry relative="1" as="geometry"/>
                </mxCell>
                <mxCell id="105" value="create.database" style="shape=process;whiteSpace=wrap;html=1;backgroundOutline=1;fontSize=10;strokeColor=#C73500;fillColor=#fa6800;fontColor=#000000;" parent="1" vertex="1">
                    <mxGeometry x="1336" y="528" width="169" height="24" as="geometry"/>
                </mxCell>
                <mxCell id="109" style="edgeStyle=none;html=1;exitX=0.834;exitY=1.041;exitDx=0;exitDy=0;entryX=0.5;entryY=0;entryDx=0;entryDy=0;fontSize=10;fontColor=#000000;startArrow=none;startFill=0;endArrow=classic;endFill=1;strokeWidth=1;exitPerimeter=0;" parent="1" source="106" target="42" edge="1">
                    <mxGeometry relative="1" as="geometry"/>
                </mxCell>
                <mxCell id="106" value="token_authentication" style="shape=process;whiteSpace=wrap;html=1;backgroundOutline=1;fontSize=10;strokeColor=#3700CC;fillColor=#6a00ff;fontColor=#ffffff;" parent="1" vertex="1">
                    <mxGeometry x="327" y="648" width="169" height="24" as="geometry"/>
                </mxCell>
                <mxCell id="108" style="edgeStyle=none;html=1;exitX=0;exitY=0.5;exitDx=0;exitDy=0;entryX=0.5;entryY=0;entryDx=0;entryDy=0;fontSize=10;fontColor=#000000;startArrow=none;startFill=0;endArrow=classic;endFill=1;strokeWidth=1;" parent="1" source="39" target="106" edge="1">
                    <mxGeometry relative="1" as="geometry">
                        <Array as="points">
                            <mxPoint x="412" y="624"/>
                        </Array>
                    </mxGeometry>
                </mxCell>
                <mxCell id="111" style="edgeStyle=none;html=1;exitX=0.5;exitY=0;exitDx=0;exitDy=0;entryX=0;entryY=0;entryDx=96;entryDy=32;entryPerimeter=0;fontSize=10;fontColor=#000000;startArrow=none;startFill=0;endArrow=none;endFill=0;strokeWidth=1;dashed=1;dashPattern=1 1;" parent="1" source="110" target="10" edge="1">
                    <mxGeometry relative="1" as="geometry">
                        <Array as="points">
                            <mxPoint x="1384" y="216"/>
                        </Array>
                    </mxGeometry>
                </mxCell>
                <mxCell id="112" style="edgeStyle=none;html=1;exitX=0.5;exitY=1;exitDx=0;exitDy=0;entryX=0.285;entryY=-0.025;entryDx=0;entryDy=0;entryPerimeter=0;fontSize=10;fontColor=#000000;startArrow=none;startFill=0;endArrow=none;endFill=0;strokeWidth=1;" parent="1" source="110" target="105" edge="1">
                    <mxGeometry relative="1" as="geometry"/>
                </mxCell>
                <mxCell id="110" value="request.json" style="rounded=1;whiteSpace=wrap;html=1;fontSize=10;strokeColor=#3D3D3D;gradientColor=none;" parent="1" vertex="1">
                    <mxGeometry x="1336" y="480" width="96" height="32" as="geometry"/>
                </mxCell>
                <mxCell id="117" value="" style="group" parent="1" vertex="1" connectable="0">
                    <mxGeometry x="1526" y="584" width="128" height="26" as="geometry"/>
                </mxCell>
                <mxCell id="115" value="list_database_names" style="rounded=1;whiteSpace=wrap;html=1;fontSize=10;fontColor=#ffffff;strokeColor=#432D57;fillColor=#76608a;align=right;" parent="117" vertex="1">
                    <mxGeometry width="128" height="26" as="geometry"/>
                </mxCell>
                <mxCell id="116" value="" style="sketch=0;pointerEvents=1;shadow=0;dashed=0;html=1;strokeColor=none;labelPosition=center;verticalLabelPosition=bottom;verticalAlign=top;align=center;fillColor=#505050;shape=mxgraph.mscae.oms.log_search;fontSize=10;fontColor=#000000;" parent="117" vertex="1">
                    <mxGeometry x="8" y="5" width="16" height="16" as="geometry"/>
                </mxCell>
                <mxCell id="127" style="edgeStyle=none;html=1;exitX=1;exitY=0.5;exitDx=0;exitDy=0;entryX=0;entryY=0.5;entryDx=0;entryDy=0;fontSize=10;fontColor=#000000;startArrow=none;startFill=0;endArrow=classic;endFill=1;strokeWidth=1;" parent="1" source="119" target="126" edge="1">
                    <mxGeometry relative="1" as="geometry"/>
                </mxCell>
                <mxCell id="129" style="edgeStyle=none;html=1;exitX=0.5;exitY=1;exitDx=0;exitDy=0;entryX=0.5;entryY=0;entryDx=0;entryDy=0;fontSize=10;fontColor=#000000;startArrow=none;startFill=0;endArrow=classic;endFill=1;strokeWidth=1;" parent="1" source="119" target="128" edge="1">
                    <mxGeometry relative="1" as="geometry"/>
                </mxCell>
                <mxCell id="119" value="&lt;font color=&quot;#ffffff&quot;&gt;search&lt;/font&gt;" style="rhombus;whiteSpace=wrap;html=1;fontSize=10;fontColor=#F0B30A;strokeColor=#3D3D3D;gradientColor=none;" parent="1" vertex="1">
                    <mxGeometry x="1449" y="605" width="56" height="56" as="geometry"/>
                </mxCell>
                <mxCell id="122" style="edgeStyle=none;html=1;entryX=0;entryY=0.5;entryDx=0;entryDy=0;entryPerimeter=0;fontSize=10;fontColor=#000000;startArrow=classic;startFill=1;endArrow=classic;endFill=1;strokeWidth=1;" parent="1" source="120" target="7" edge="1">
                    <mxGeometry relative="1" as="geometry"/>
                </mxCell>
                <mxCell id="138" style="edgeStyle=none;html=1;endArrow=classic;endFill=1;entryX=0.5;entryY=0.015;entryDx=0;entryDy=0;entryPerimeter=0;fillColor=#1ba1e2;strokeColor=#006EAF;" edge="1" parent="1" source="120" target="139">
                    <mxGeometry relative="1" as="geometry">
                        <mxPoint x="1756" y="280" as="targetPoint"/>
                        <Array as="points">
                            <mxPoint x="1756" y="272"/>
                            <mxPoint x="2008" y="272"/>
                        </Array>
                    </mxGeometry>
                </mxCell>
                <mxCell id="145" style="edgeStyle=none;html=1;entryX=0.5;entryY=0;entryDx=0;entryDy=0;entryPerimeter=0;endArrow=classic;endFill=1;fillColor=#1ba1e2;strokeColor=#006EAF;" edge="1" parent="1" source="120" target="143">
                    <mxGeometry relative="1" as="geometry">
                        <Array as="points">
                            <mxPoint x="1756" y="264"/>
                            <mxPoint x="2156" y="264"/>
                        </Array>
                    </mxGeometry>
                </mxCell>
                <mxCell id="120" value="" style="sketch=0;outlineConnect=0;gradientColor=#b3b3b3;fillColor=#f5f5f5;strokeColor=#666666;dashed=0;verticalLabelPosition=bottom;verticalAlign=top;align=center;html=1;fontSize=12;fontStyle=0;aspect=fixed;pointerEvents=1;shape=mxgraph.aws4.peering;" parent="1" vertex="1">
                    <mxGeometry x="1736" y="360" width="40" height="40" as="geometry"/>
                </mxCell>
                <mxCell id="123" style="edgeStyle=none;html=1;exitX=0.5;exitY=0;exitDx=0;exitDy=0;fontSize=10;fontColor=#000000;startArrow=none;startFill=0;endArrow=classic;endFill=1;strokeWidth=1;" parent="1" source="115" target="120" edge="1">
                    <mxGeometry relative="1" as="geometry">
                        <mxPoint x="1756" y="408" as="targetPoint"/>
                        <Array as="points">
                            <mxPoint x="1590" y="544"/>
                            <mxPoint x="1756" y="544"/>
                        </Array>
                    </mxGeometry>
                </mxCell>
                <mxCell id="125" style="edgeStyle=none;html=1;exitX=0;exitY=0.5;exitDx=0;exitDy=0;entryX=1;entryY=0;entryDx=0;entryDy=0;fontSize=10;fontColor=#000000;startArrow=none;startFill=0;endArrow=classic;endFill=1;strokeWidth=1;" parent="1" source="115" target="119" edge="1">
                    <mxGeometry relative="1" as="geometry">
                        <Array as="points">
                            <mxPoint x="1504" y="597"/>
                        </Array>
                    </mxGeometry>
                </mxCell>
                <mxCell id="126" value="FOUND" style="rounded=1;whiteSpace=wrap;html=1;fontSize=10;strokeColor=none;fillColor=#E55C5C;fontColor=#ffffff;" parent="1" vertex="1">
                    <mxGeometry x="1530" y="623" width="120" height="20" as="geometry"/>
                </mxCell>
                <mxCell id="136" style="edgeStyle=none;html=1;exitX=0.5;exitY=1;exitDx=0;exitDy=0;entryX=0;entryY=0.5;entryDx=0;entryDy=0;" edge="1" parent="1" source="128" target="131">
                    <mxGeometry relative="1" as="geometry">
                        <Array as="points">
                            <mxPoint x="1477" y="749"/>
                        </Array>
                    </mxGeometry>
                </mxCell>
                <mxCell id="128" value="Document Assembler" style="rounded=0;whiteSpace=wrap;html=1;fontSize=10;strokeColor=none;" parent="1" vertex="1">
                    <mxGeometry x="1417" y="694" width="120" height="28" as="geometry"/>
                </mxCell>
                <mxCell id="135" value="" style="group" parent="1" vertex="1" connectable="0">
                    <mxGeometry x="1520" y="736" width="86" height="26" as="geometry"/>
                </mxCell>
                <mxCell id="131" value="insert_one( )" style="rounded=1;whiteSpace=wrap;html=1;fontSize=10;fontColor=#ffffff;strokeColor=#432D57;fillColor=#76608a;align=right;" parent="135" vertex="1">
                    <mxGeometry width="86" height="26" as="geometry"/>
                </mxCell>
                <mxCell id="134" value="" style="triangle;whiteSpace=wrap;html=1;fontSize=10;fontColor=#000000;strokeColor=#3D3D3D;fillColor=#98EB50;gradientColor=none;rotation=-90;" parent="135" vertex="1">
                    <mxGeometry x="5.5" width="19" height="24" as="geometry"/>
                </mxCell>
                <mxCell id="137" style="edgeStyle=none;html=1;exitX=1;exitY=0.5;exitDx=0;exitDy=0;endArrow=oval;endFill=0;fillColor=#1ba1e2;strokeColor=#006EAF;" edge="1" parent="1" source="131">
                    <mxGeometry relative="1" as="geometry">
                        <mxPoint x="1768" y="408" as="targetPoint"/>
                        <Array as="points">
                            <mxPoint x="1768" y="749"/>
                        </Array>
                    </mxGeometry>
                </mxCell>
                <mxCell id="142" style="edgeStyle=none;html=1;exitX=1;exitY=0.5;exitDx=0;exitDy=0;exitPerimeter=0;entryX=0;entryY=0.5;entryDx=0;entryDy=0;entryPerimeter=0;endArrow=none;endFill=0;" edge="1" parent="1" source="139" target="141">
                    <mxGeometry relative="1" as="geometry">
                        <Array as="points">
                            <mxPoint x="2048" y="356"/>
                        </Array>
                    </mxGeometry>
                </mxCell>
                <mxCell id="139" value="" style="outlineConnect=0;dashed=0;verticalLabelPosition=bottom;verticalAlign=top;align=center;html=1;shape=mxgraph.aws3.generic_database;fillColor=#1ba1e2;fontColor=#ffffff;strokeColor=#006EAF;" vertex="1" parent="1">
                    <mxGeometry x="1984" y="328" width="48" height="56" as="geometry"/>
                </mxCell>
                <mxCell id="144" style="edgeStyle=none;html=1;exitX=1;exitY=0.5;exitDx=0;exitDy=0;exitPerimeter=0;entryX=0;entryY=0.5;entryDx=0;entryDy=0;entryPerimeter=0;endArrow=none;endFill=0;" edge="1" parent="1" source="141" target="143">
                    <mxGeometry relative="1" as="geometry"/>
                </mxCell>
                <mxCell id="141" value="LOG" style="whiteSpace=wrap;html=1;shape=mxgraph.basic.document" vertex="1" parent="1">
                    <mxGeometry x="2072" y="339" width="32" height="34" as="geometry"/>
                </mxCell>
                <mxCell id="143" value="" style="verticalLabelPosition=bottom;html=1;verticalAlign=top;align=center;strokeColor=#006EAF;fillColor=#1ba1e2;shape=mxgraph.azure.code_file;pointerEvents=1;fontColor=#ffffff;" vertex="1" parent="1">
                    <mxGeometry x="2144" y="341.5" width="24" height="29" as="geometry"/>
                </mxCell>
                <mxCell id="146" value="403" style="outlineConnect=0;dashed=0;verticalLabelPosition=bottom;verticalAlign=top;align=center;html=1;shape=mxgraph.aws3.http_protocol;fillColor=#E55C5C;fontColor=#ffffff;strokeColor=#A50040;" vertex="1" parent="1">
                    <mxGeometry x="568" y="1160" width="63" height="66" as="geometry"/>
                </mxCell>
                <mxCell id="148" value="&lt;font color=&quot;#ffffff&quot;&gt;400&lt;/font&gt;" style="outlineConnect=0;dashed=0;verticalLabelPosition=bottom;verticalAlign=top;align=center;html=1;shape=mxgraph.aws3.http_protocol;fillColor=#e3c800;fontColor=#000000;strokeColor=#B09500;" vertex="1" parent="1">
                    <mxGeometry x="650" y="1160" width="63" height="66" as="geometry"/>
                </mxCell>
                <mxCell id="151" value="&lt;font color=&quot;#ffffff&quot;&gt;201&lt;/font&gt;" style="outlineConnect=0;dashed=0;verticalLabelPosition=bottom;verticalAlign=top;align=center;html=1;shape=mxgraph.aws3.http_protocol;fillColor=#cdeb8b;strokeColor=#36393d;" vertex="1" parent="1">
                    <mxGeometry x="737" y="1160" width="63" height="66" as="geometry"/>
                </mxCell>
            </root>
        </mxGraphModel>
    </diagram>
</mxfile>